<?xml version="1.0" encoding="utf-8"?>
<!-- Generator: Adobe Illustrator 18.0.0, SVG Export Plug-In . SVG Version: 6.00 Build 0)  -->
<!DOCTYPE svg PUBLIC "-//W3C//DTD SVG 1.1//EN" "http://www.w3.org/Graphics/SVG/1.1/DTD/svg11.dtd">
<svg version="1.1" id="Layer_1" xmlns="http://www.w3.org/2000/svg" xmlns:xlink="http://www.w3.org/1999/xlink" x="0px" y="0px"
	 viewBox="0 0 367.9 60.6" enable-background="new 0 0 367.9 60.6" xml:space="preserve">
<g>
	<path fill="none" stroke="#000000" stroke-width="2" stroke-miterlimit="4.663" d="M366.8,20c-0.6-5.3-3.1-9.8-7.3-13.4
		c-4.3-3.6-9.9-5.4-17-5.4c-8.1,0-14.6,2.7-19.6,8.1c-4.9,5.4-7.4,12.6-7.4,21.6c0,8.9,2.4,15.8,7.3,21c4.7,5.1,10.7,7.6,18,7.6
		c4.5,0,8.2-0.9,11.3-2.8c1.8-1.1,3.8-2.9,6-5.5l1.2,6.9h7.7V28.4h-23.1v9.2h12.8c-0.6,3.6-2.1,6.5-4.6,8.8
		c-2.5,2.2-5.7,3.3-9.5,3.3c-4,0-7.5-1.4-10.6-4.2c-3.1-2.8-4.7-7.6-4.7-14.4c0-6.7,1.4-11.8,4.3-15.2c2.9-3.4,6.5-5,11-5
		c2.3,0,4.4,0.4,6.3,1.2c3.4,1.5,5.5,4.1,6.4,7.9H366.8z M262.4,58.1h10.8V18.8l22.5,39.3h11.6V2.7h-10.8v38.6l-22-38.6h-12.1V58.1z
		 M253.7,30.3c0-10.1-2.8-17.8-8.4-22.8C241.2,3.2,235.1,1,227.2,1c-7.9,0-14,2.2-18.1,6.5c-5.6,5.1-8.4,12.7-8.4,22.8
		c0,9.9,2.8,17.6,8.4,22.8c4.2,4.3,10.2,6.5,18.1,6.5c7.9,0,14-2.2,18.1-6.5C251,47.9,253.7,40.2,253.7,30.3z M227.2,49.8
		c-4.6,0-8.2-1.7-11-5.1s-4.1-8.2-4.1-14.4s1.4-11,4.1-14.4c2.7-3.4,6.4-5.1,11-5.1s8.2,1.7,10.9,5.1c2.7,3.4,4,8.2,4,14.4
		c0,6.2-1.3,11-4,14.4C235.4,48.1,231.8,49.8,227.2,49.8z M193.4,20.2c0-6-1.6-10.4-4.9-13.3c-3.3-2.9-7.6-4.3-13.1-4.3h-23.8v55.4
		h11.5V38.2h11.5c6,0,10.6-1.4,13.9-4.1C191.8,31.4,193.4,26.8,193.4,20.2z M181.9,20.3c0,2.9-0.7,5-2.2,6.3c-1.5,1.3-3.5,2-6.2,2
		h-10.4V12.3h10.4c2.6,0,4.7,0.6,6.2,1.8C181.2,15.4,181.9,17.4,181.9,20.3z M119.7,2.7H79v55.4h42v-10H90.3V33.9h26.9v-9.6H90.3
		V12.5h29.3V2.7z M1.3,2.7L17,58.1h10.7l6.7-32.4l2-10.7l2,10.7l6.7,32.4h11.1L71.7,2.7H59.9l-7.4,32.1l-1.7,8.5l-1.7-8.8L42.6,2.7
		H30.4l-6.3,31.9l-1.6,8.6l-1.6-8.8L13.6,2.7H1.3z"/>
</g>
</svg>
